<?xml version="1.0" standalone="no"?><!DOCTYPE svg PUBLIC "-//W3C//DTD SVG 1.1//EN" "http://www.w3.org/Graphics/SVG/1.1/DTD/svg11.dtd"><svg t="1591236701440" class="icon" viewBox="0 0 1024 1024" version="1.1" xmlns="http://www.w3.org/2000/svg" p-id="4464" xmlns:xlink="http://www.w3.org/1999/xlink" width="16" height="16"><defs><style type="text/css"></style></defs><path d="M554.667 298.667L128 298.66699999 128 384 554.667 384l0-85.333zM896.00000001 512l-170.667-170.667L725.33300001 682.667 896.00000001 512z m-1e-8-384l-768 0 0 85.333L896 213.333 896 128z m0 768l0-85.333-768 0L128 896 896 896z m-341.333-256L128 640l0 85.33300001L554.667 725.333 554.667 640z m0-170.667L128 469.333l0 85.334L554.667 554.667l0-85.334z" p-id="4465" fill="#6c6c6c"></path></svg>